<svg xmlns="http://www.w3.org/2000/svg" viewBox="0 0 32 32" width="32" height="32">
  <defs>
    <linearGradient id="bg" x1="0%" y1="0%" x2="100%" y2="100%">
      <stop offset="0%" style="stop-color:#0d9488"/>
      <stop offset="100%" style="stop-color:#0891b2"/>
    </linearGradient>
    <linearGradient id="acc" x1="0%" y1="0%" x2="100%" y2="100%">
      <stop offset="0%" style="stop-color:#f97316"/>
      <stop offset="100%" style="stop-color:#fbbf24"/>
    </linearGradient>
  </defs>
  <rect width="32" height="32" rx="8" fill="url(#bg)"/>
  <path d="M16 5 C11 5 8 9 8 13 C8 17 9 20 10 23 C11 25.5 12 26.5 14 26.5 C15 26.5 15.7 25 16 25 C16.3 25 17 26.5 18 26.5 C20 26.5 21 25.5 22 23 C23 20 24 17 24 13 C24 9 21 5 16 5Z" fill="white" opacity="0.95"/>
  <circle cx="13" cy="13" r="1.5" fill="url(#acc)"/>
  <circle cx="19" cy="13" r="1.5" fill="url(#acc)"/>
  <path d="M12 17 Q16 21 20 17" stroke="url(#acc)" stroke-width="2" fill="none" stroke-linecap="round"/>
</svg>
